<svg width="417" height="232" viewBox="0 0 417 232" fill="none" xmlns="http://www.w3.org/2000/svg">
<path d="M293.695 0.00416565C294.781 0.00279099 295.866 0.00141632 296.984 0C298.159 0.00359528 299.335 0.00719055 300.546 0.0108948C302.42 0.0106757 302.42 0.0106757 304.331 0.0104523C307.744 0.0110282 311.157 0.0160322 314.57 0.0230262C318.141 0.0292914 321.713 0.0298661 325.284 0.0310516C332.041 0.0341556 338.798 0.0423564 345.556 0.0524011C353.251 0.0635912 360.946 0.06908 368.641 0.0740966C384.466 0.0845399 400.29 0.102121 416.114 0.12442C416.208 17.0587 416.279 33.9929 416.322 50.9274C416.342 58.792 416.37 66.6564 416.416 74.5209C416.456 81.3828 416.482 88.2446 416.491 95.1067C416.496 98.7335 416.508 102.36 416.537 105.987C416.761 134.669 416.761 134.669 412.114 148.124C411.747 149.313 411.379 150.501 411 151.725C406.31 166.634 398.631 180.585 388.114 192.124C387.505 192.875 386.895 193.625 386.267 194.398C369.071 215.208 341.57 227.847 315.114 231.124C306.006 231.747 296.869 231.608 287.745 231.53C284.264 231.505 280.784 231.503 277.303 231.498C270.745 231.486 264.186 231.453 257.628 231.412C250.148 231.367 242.667 231.346 235.187 231.326C219.829 231.284 204.472 231.214 189.114 231.124C189.044 214.99 188.991 198.855 188.959 182.72C188.944 175.227 188.923 167.733 188.888 160.24C188.858 153.701 188.839 147.161 188.832 140.622C188.828 137.167 188.819 133.712 188.797 130.257C188.588 93.4068 195.913 61.4412 222.114 34.1244C222.939 33.2582 223.764 32.3919 224.614 31.4994C225.439 30.7157 226.264 29.9319 227.114 29.1244C227.7 28.5443 228.285 27.9643 228.888 27.3666C245.397 11.7165 270.787 -0.0183379 293.695 0.00416565Z" fill="#66DD96"/>
<path d="M0.114431 57.1244C11.8161 57.0545 23.5177 57.0014 35.2196 56.9689C40.6549 56.9534 46.0901 56.9323 51.5253 56.8981C56.7838 56.8651 62.0422 56.8475 67.3008 56.8397C69.2935 56.8343 71.2863 56.8236 73.279 56.8072C88.656 56.6861 104.188 56.8419 118.114 64.1244C119.53 64.7238 120.948 65.3173 122.368 65.9056C127.048 67.9765 130.998 70.5843 135.052 73.6869C135.742 74.2121 136.432 74.7373 137.143 75.2784C149.19 84.666 157.586 96.1312 163.864 109.999C164.146 110.611 164.428 111.222 164.719 111.852C170.722 125.729 170.518 139.435 170.407 154.269C170.402 156.492 170.398 158.716 170.395 160.939C170.383 166.751 170.354 172.562 170.32 178.373C170.29 184.32 170.276 190.266 170.261 196.212C170.229 207.85 170.178 219.487 170.114 231.124C158.169 231.218 146.224 231.288 134.279 231.332C128.73 231.352 123.182 231.38 117.633 231.426C112.265 231.47 106.896 231.494 101.527 231.504C99.4935 231.511 97.4597 231.525 95.426 231.547C79.5931 231.71 63.63 230.792 49.2394 223.437C48.5473 223.097 47.8551 222.756 47.142 222.406C25.198 211.232 10.5836 191.962 3.05584 168.878C0.822547 161.003 -0.0318847 153.608 0.000905844 145.447C0.000759814 144.49 0.000613792 143.534 0.000463332 142.548C0.00115766 139.399 0.00892754 136.25 0.016775 133.101C0.0186409 130.912 0.020064 128.724 0.0210627 126.535C0.0248744 120.784 0.0346933 115.034 0.0457667 109.283C0.0560097 103.411 0.0605665 97.5393 0.0656031 91.6673C0.0763167 80.153 0.093377 68.6387 0.114431 57.1244Z" fill="#66DD96"/>
</svg>
