<svg width="242" height="76" viewBox="0 0 242 76" fill="none" xmlns="http://www.w3.org/2000/svg">
<path d="M82.757 47.534L84.269 43.754H102.539L104.051 47.534H82.757ZM93.152 22.334H93.971L79.67 59H75.26L91.577 17.42H95.609L111.863 59H107.453L93.152 22.334ZM117.917 29.264H122.075V38.021H121.445C121.571 35.249 122.369 33.044 123.839 31.406C125.309 29.768 127.031 28.949 129.005 28.949C131.105 28.949 132.722 29.474 133.856 30.524C135.032 31.532 135.809 32.897 136.187 34.619L133.541 37.265C132.869 34.241 131.21 32.729 128.564 32.729C126.716 32.729 125.162 33.506 123.902 35.06C122.684 36.572 122.075 38.63 122.075 41.234V59H117.917V29.264ZM145.187 17.357V33.485C146.279 31.889 147.602 30.734 149.156 30.02C150.752 29.264 152.621 28.886 154.763 28.886C157.535 28.886 160.034 29.558 162.26 30.902C164.528 32.246 166.313 34.094 167.615 36.446C168.917 38.756 169.568 41.318 169.568 44.132C169.568 46.61 168.959 49.025 167.741 51.377C166.523 53.729 164.759 55.64 162.449 57.11C160.181 58.58 157.514 59.315 154.448 59.315C150.374 59.315 147.287 57.803 145.187 54.779V58.937H141.029V17.357H145.187ZM154.763 32.729C152.495 32.729 150.5 33.275 148.778 34.367C147.056 35.459 145.859 36.866 145.187 38.588V49.739C145.817 51.419 146.93 52.805 148.526 53.897C150.164 54.989 152.138 55.535 154.448 55.535C156.506 55.535 158.354 55.031 159.992 54.023C161.672 52.973 162.995 51.587 163.961 49.865C164.927 48.101 165.41 46.19 165.41 44.132C165.41 42.032 164.948 40.121 164.024 38.399C163.142 36.635 161.882 35.249 160.244 34.241C158.648 33.233 156.821 32.729 154.763 32.729ZM189.648 59.378C186.834 59.378 184.251 58.727 181.899 57.425C179.547 56.081 177.699 54.254 176.355 51.944C175.011 49.592 174.339 46.988 174.339 44.132C174.339 41.318 175.011 38.756 176.355 36.446C177.699 34.136 179.547 32.309 181.899 30.965C184.251 29.621 186.834 28.949 189.648 28.949C192.546 28.949 195.15 29.621 197.46 30.965C199.812 32.309 201.66 34.136 203.004 36.446C204.348 38.756 205.02 41.318 205.02 44.132C205.02 46.988 204.327 49.592 202.941 51.944C201.597 54.254 199.749 56.081 197.397 57.425C195.045 58.727 192.462 59.378 189.648 59.378ZM189.648 55.535C191.706 55.535 193.596 55.052 195.318 54.086C197.04 53.12 198.384 51.776 199.35 50.054C200.358 48.332 200.862 46.358 200.862 44.132C200.862 41.906 200.358 39.932 199.35 38.21C198.342 36.488 196.977 35.144 195.255 34.178C193.533 33.212 191.664 32.729 189.648 32.729C187.674 32.729 185.826 33.212 184.104 34.178C182.424 35.102 181.059 36.446 180.009 38.21C179.001 39.932 178.497 41.906 178.497 44.132C178.497 46.274 178.98 48.227 179.946 49.991C180.912 51.713 182.235 53.078 183.915 54.086C185.637 55.052 187.548 55.535 189.648 55.535ZM212.232 29.264H216.39V38.021H215.76C215.886 35.249 216.684 33.044 218.154 31.406C219.624 29.768 221.346 28.949 223.32 28.949C225.42 28.949 227.037 29.474 228.171 30.524C229.347 31.532 230.124 32.897 230.502 34.619L227.856 37.265C227.184 34.241 225.525 32.729 222.879 32.729C221.031 32.729 219.477 33.506 218.217 35.06C216.999 36.572 216.39 38.63 216.39 41.234V59H212.232V29.264Z" fill="black"/>
<rect x="19" y="29" width="18" height="18" rx="9" fill="black"/>
<rect y="47" width="18" height="18" rx="9" fill="black"/>
<rect x="37" y="47" width="18" height="18" rx="9" fill="black"/>
<path d="M37 20C37 15.0294 41.0294 11 46 11C50.9706 11 55 15.0294 55 20C55 24.9706 50.9706 29 46 29C41.0294 29 37 24.9706 37 20Z" fill="black"/>
</svg>
